<svg xmlns="http://www.w3.org/2000/svg" viewBox="0 0 256 140" fill="currentColor">
  <defs>
    <mask id="m">
      <rect width="100%" height="100%" fill="white"/>
      <path d="M68.539,107.063 C61.810,96.315 57.921,83.611 57.921,70 C57.921,56.389 61.810,43.685 68.539,32.937 C75.268,43.685 79.157,56.389 79.157,70 C79.157,83.611 75.268,96.315 68.539,107.063Z" fill="black"/>
      <path d="M187.461,32.937 C194.190,43.685 198.079,56.389 198.079,70 C198.079,83.611 194.190,96.315 187.461,107.063 C180.732,96.315 176.843,83.611 176.843,70 C176.843,56.389 180.732,43.685 187.461,32.937Z" fill="black"/>
    </mask>
  </defs>
  <g mask="url(#m)">
    <ellipse cx="58" cy="70" rx="58" ry="58"/>
    <ellipse cx="128" cy="70" rx="58" ry="58"/>
    <ellipse cx="198" cy="70" rx="58" ry="58"/>
  </g>
</svg>
